<?xml version="1.0" encoding="UTF-8"?>
<svg width="48px" height="48px" viewBox="0 0 48 48" version="1.1" xmlns="http://www.w3.org/2000/svg" xmlns:xlink="http://www.w3.org/1999/xlink">
    <title>icon /买方思维</title>
    <g id="WEB" stroke="none" stroke-width="1" fill="none" fill-rule="evenodd">
        <g id="首页" transform="translate(-450, -2788)">
            <g id="icon-/买方思维" transform="translate(450, 2788)">
                <rect id="矩形" x="0" y="0" width="48" height="48"></rect>
                <circle id="椭圆形" fill-opacity="0.4" fill="#FFFFFF" cx="13" cy="16" r="7"></circle>
                <path d="M6,25 L22,25 C25.3137085,25 28,27.6862915 28,31 L28,39 C28,39.5522847 27.5522847,40 27,40 L1,40 C0.44771525,40 -5.21293825e-16,39.5522847 0,39 L0,31 C-4.05812251e-16,27.6862915 2.6862915,25 6,25 Z" id="矩形" fill-opacity="0.4" fill="#FFFFFF"></path>
                <circle id="椭圆形" fill="#FFFFFF" cx="32" cy="14" r="8"></circle>
                <path d="M22,25 L42,25 C45.3137085,25 48,27.6862915 48,31 L48,40 C48,40.5522847 47.5522847,41 47,41 L17,41 C16.4477153,41 16,40.5522847 16,40 L16,31 C16,27.6862915 18.6862915,25 22,25 Z" id="矩形" fill="#FFFFFF"></path>
            </g>
        </g>
    </g>
</svg>