<?xml version="1.0" encoding="UTF-8"?>
<svg width="20px" height="20px" viewBox="0 0 20 20" version="1.1" xmlns="http://www.w3.org/2000/svg" xmlns:xlink="http://www.w3.org/1999/xlink">
    <title>icon/menu</title>
    <g id="WAP" stroke="none" stroke-width="1" fill="none" fill-rule="evenodd">
        <g id="导航展开" transform="translate(-346, -74)" fill-rule="nonzero">
            <g id="icon/menu" transform="translate(346, 74)">
                <rect id="矩形" fill="#000000" opacity="0" x="0" y="0" width="20" height="20"></rect>
                <path d="M10.9892359,10 L15.9638415,4.24110429 C16.0472254,4.14539877 15.9771071,4 15.8482411,4 L14.335961,4 C14.2468919,4 14.1616129,4.03865031 14.1028652,4.10490798 L10,8.85521472 L5.89713477,4.10490798 C5.84028214,4.03865031 5.75500318,4 5.66403897,4 L4.15175885,4 C4.02289288,4 3.95277463,4.14539877 4.03615849,4.24110429 L9.01076413,10 L4.03615849,15.7588957 C3.95277463,15.8546012 4.02289288,16 4.15175885,16 L5.66403897,16 C5.7531081,16 5.83838705,15.9613497 5.89713477,15.895092 L10,11.1447853 L14.1028652,15.895092 C14.1597179,15.9613497 14.2449968,16 14.335961,16 L15.8482411,16 C15.9771071,16 16.0472254,15.8546012 15.9638415,15.7588957 L10.9892359,10 Z" id="路径" fill="#333333"></path>
            </g>
        </g>
    </g>
</svg>