<?xml version="1.0" encoding="UTF-8"?>
<svg width="96px" height="86px" viewBox="0 0 96 86" version="1.1" xmlns="http://www.w3.org/2000/svg" xmlns:xlink="http://www.w3.org/1999/xlink">
    <title>logo-图形</title>
    <g id="WEB" stroke="none" stroke-width="none" fill="none" fill-rule="evenodd">
        <g id="首页" transform="translate(-320, -3184)" fill="currentColor">
            <g id="编组-6" transform="translate(0, 3120)">
                <path d="M377.41509,150 L358.364892,122.845348 C364.226736,120.311104 368.752588,116.655093 371.937682,111.880475 C371.951979,111.861515 371.96151,111.840976 371.974219,111.822016 L416,111.822016 L416,150 L377.41509,150 Z M320.000794,126.648295 L337.972349,126.648295 L338.990626,126.648295 L355.246519,150 L320.000794,150 L320.000794,126.648295 Z M336.824603,79.2558679 C343.024813,79.2558679 347.742882,80.5877682 350.972456,83.248409 C354.20203,85.9122097 355.814435,89.7356959 355.814435,94.7220275 C355.814435,99.6230416 354.20203,103.425988 350.972456,106.129288 C347.742882,108.834167 343.024813,110.186607 336.824603,110.186607 L320,110.186607 L320,79.2558679 Z M416,64 L416,106.352219 L374.758992,106.352219 C376.060035,102.882643 376.717705,99.0433568 376.717705,94.8312022 C376.717705,88.2412184 375.145015,82.5360082 372.002813,77.7203116 C368.859022,72.901455 364.376062,69.1822457 358.55711,66.5626837 C356.152007,65.4819959 353.559452,64.6351411 350.798507,64 L416,64 Z" id="logo-图形"></path>
            </g>
        </g>
    </g>
</svg>