<?xml version="1.0" encoding="UTF-8"?>
<svg width="95px" height="32px" viewBox="0 0 95 32" version="1.1" xmlns="http://www.w3.org/2000/svg" xmlns:xlink="http://www.w3.org/1999/xlink">
    <title>Logo-文字</title>
    <g id="页面-1" stroke="none" stroke-width="1" fill="none" fill-rule="evenodd">
        <g id="首页" transform="translate(-40, -12)">
            <g id="Logo-文字" transform="translate(40, 12)">
                <path d="M21.8049609,15.4257176 L20.5046709,18.3426689 L23.7338983,18.3426689 L24.9399397,15.4257176 L21.8049609,15.4257176 Z M34.4716017,15.4257176 L31.2627786,15.4257176 L32.4685771,18.3426689 L35.7760211,18.3426689 L34.4716017,15.4257176 Z M26.2656136,12.2745359 L28.1112334,7.81944533 L29.9563674,12.2745359 L33.0624401,12.2745359 L29.6869817,4.72665118 L26.5743505,4.72665118 L23.20958,12.2745359 L26.2656136,12.2745359 Z" id="形状结合" fill="#000000"></path>
                <path d="M37.9546443,18.3426446 L38.9466832,18.3426446 L38.9466832,15.4256933 L37.9546443,15.4256933 L37.9546443,18.3426446 Z M46.2027285,12.2745359 L46.2027285,11.4373393 L38.9468046,11.4373393 L38.9468046,5.6214096 L47.0587385,5.6214096 L47.0587385,4.72665118 L37.9545229,4.72665118 L37.9545229,12.2745359 L46.2027285,12.2745359 Z" id="形状结合" fill="#000000"></path>
                <path d="M5.85579847,13.9660033 C6.75043098,13.5771574 7.44126314,13.0163547 7.92756622,12.2835952 C8.41386931,11.5513214 8.65677795,10.6789077 8.65677795,9.66732547 C8.65677795,8.65598616 8.41702712,7.78065789 7.93728257,7.04158356 C7.45729511,6.30226634 6.77326439,5.73174856 5.88494751,5.32954445 C4.99638772,4.92806898 3.94920859,4.72672405 2.74316722,4.72672405 L-7.10542736e-15,4.72672405 L-7.10542736e-15,7.29417551 L2.56778718,7.29417551 C3.51440214,7.29417551 4.23438333,7.49843496 4.72724495,7.90695387 C5.22010657,8.31571565 5.46641593,8.90226331 5.46641593,9.66732547 C5.46641593,10.4195152 5.22010657,11.0031483 4.72724495,11.417982 C4.23438333,11.8330586 3.51440214,12.0402326 2.56778718,12.0402326 L-7.10542736e-15,12.0402326 L-7.10542736e-15,14.5496364 L2.74316722,14.5496364 L2.89862875,14.5496364 L5.52519982,18.3426446 L8.90988875,18.3426446 L5.85579847,13.9660033 Z" id="Fill-11" fill="#000000"></path>
                <path d="M13.7733326,18.3426446 L16.9248292,18.3426446 L16.9248292,10.42583 L13.7733326,10.42583 L13.7733326,18.3426446 Z M10.9057961,7.27469678 L20.3670875,7.27469678 L21.2826101,7.27469678 L21.2826101,4.72667547 L9.41555165,4.72667547 L9.41555165,7.27469678 L10.9057961,7.27469678 Z" id="形状结合" fill="#000000"></path>
                <path d="M53.9942659,17.3201816 C53.2922599,17.1205368 52.7100079,16.7763802 52.2533397,16.2809114 C51.4879346,15.451244 51.1053535,14.1994566 51.1053535,12.5267635 L51.1053535,4.72677262 L50.1133146,4.72677262 L50.1133146,12.5656238 C50.1133146,14.4848369 50.5901443,15.9435554 51.5433177,16.9422651 C52.1843536,17.6140626 53.0041703,18.0539126 53.9942659,18.2737162 L53.9942659,17.3201816 Z M60.0347235,4.72674833 L60.0347235,12.5267392 C60.0347235,14.1994323 59.6521424,15.4512197 58.8872231,16.2808871 C58.4283687,16.7780561 57.8463596,17.1231841 57.1458111,17.3223432 L57.1458111,18.2700487 C58.1293481,18.0487879 58.9457641,17.6099094 59.5875287,16.9422408 C60.5470178,15.9435311 61.0267624,14.4850555 61.0267624,12.5655995 L61.0267624,4.72674833 L60.0347235,4.72674833 Z" id="形状结合" fill="#000000"></path>
                <polygon id="Fill-17" fill="#000000" points="72.6038608 12.530601 66.4932512 4.72672405 65.6566738 4.72672405 65.6566738 18.3426446 66.6491985 18.3426446 66.6491985 6.51624087 72.6038608 14.1051718"></polygon>
                <polygon id="Fill-18" fill="#C1272D" points="75.7554303 0 75.7554303 18.0452662 75.9286242 18.3427904 76.7455259 18.3427904 76.7455259 0"></polygon>
                <polygon id="Fill-19" fill="#22B573" points="82.4852869 18.8163274 82.4845582 18.8163274 82.4845582 4.25294412 82.4852869 4.25294412 82.4852869 3.15125461 81.4920335 3.15125461 81.4920335 19.9182598 82.4852869 19.9182598"></polygon>
                <path d="M93.203339,8.02382622 C92.5933954,6.992571 91.741029,6.18549114 90.6452681,5.60185801 C89.5492644,5.01846775 88.2943983,4.72677262 86.8806701,4.72677262 L85.6369779,4.72677262 L85.6369779,5.62128816 L86.8029393,5.62128816 C88.0607202,5.62128816 89.1698411,5.87145134 90.129816,6.37007757 C91.089548,6.8696753 91.8284761,7.56648906 92.3475718,8.46124748 C92.8659389,9.35624877 93.1256082,10.3807034 93.1256082,11.5348543 C93.1256082,12.6890053 92.8659389,13.7129742 92.3475718,14.6079755 C91.8284761,15.5027339 91.089548,16.2000334 90.129816,16.6991454 C89.1698411,17.1982574 88.0607202,17.4479348 86.8029393,17.4479348 L85.6369779,17.4479348 L85.6369779,18.3426932 L86.8806701,18.3426932 C88.2943983,18.3426932 89.5492644,18.0507552 90.6452681,17.4673649 C91.741029,16.8837318 92.5933954,16.0766519 93.203339,15.0458825 C93.8127967,14.0146273 94.1176471,12.8446893 94.1176471,11.5348543 C94.1176471,10.2247765 93.8127967,9.05459569 93.203339,8.02382622" id="Fill-20" fill="#000000"></path>
                <path d="M31.5918955,30.9243955 L34.4125506,30.9243955 L34.4125506,29.2475735 L31.5918955,29.2475735 L31.5918955,30.9243955 Z M34.209479,24.3353887 L34.209479,25.3095678 L35.4713893,25.3095678 L35.4713893,25.7244015 L34.209479,25.7244015 L34.209479,26.5035506 L33.7943481,26.5035506 L33.7943481,25.7244015 L32.0070264,25.7244015 L32.0070264,26.5120512 L31.5921384,26.5120512 L31.5921384,25.7244015 L30.3807531,25.7244015 L30.3807531,25.3095678 L31.5921384,25.3095678 L31.5921384,24.3353887 L32.0070264,24.3353887 L32.0070264,25.3095678 L33.7943481,25.3095678 L33.7943481,24.3353887 L34.209479,24.3353887 Z M32.9388239,26.4357879 C32.8314583,26.7352551 32.7214207,27.0033912 32.6084682,27.240439 L35.4461268,27.240439 L35.4461268,27.6555156 L32.4051536,27.6555156 C32.1736617,28.07885 31.8914019,28.4742535 31.5581312,28.8409976 L34.8361833,28.8409976 L34.8361833,31.8560712 L34.4125506,31.8560712 L34.4125506,31.3057122 L31.5921384,31.3057122 L31.5921384,31.8560712 L31.1770076,31.8560712 L31.1770076,29.2390728 C30.9340989,29.4763635 30.6545111,29.7134114 30.338487,29.9504592 L30.109667,29.5863868 C30.521883,29.2759901 30.8748292,28.9653506 31.1685058,28.6547111 C31.4621823,28.3443144 31.7162647,28.0110873 31.9307531,27.6555156 L30.1691796,27.6555156 L30.1691796,27.240439 L32.1510712,27.240439 C32.2810273,26.991976 32.4051536,26.6871655 32.523693,26.3257647 L32.9388239,26.4357879 Z M29.610004,26.0887169 L28.4918955,24.5979386 L28.8137495,24.3438894 C29.2993238,24.9537532 29.6777755,25.4448503 29.9488615,25.8176663 L29.610004,26.0887169 Z M29.4744609,30.8906356 L30.24521,30.1962506 L30.431521,30.560323 L29.1185998,31.7205459 L28.8307531,31.398734 C28.926702,31.3027976 28.9888866,31.2265343 29.017064,31.1701869 C29.0452414,31.1138394 29.059573,31.0487484 29.059573,30.9753996 L29.059573,27.4437269 L28.1362773,27.4437269 L28.1362773,27.0201497 L29.4744609,27.0201497 L29.4744609,30.8906356 Z" id="Fill-22" fill="#000000"></path>
                <path d="M39.630471,30.9583982 L44.3314818,30.9583982 L44.3314818,29.5693854 L39.630471,29.5693854 L39.630471,30.9583982 Z M39.2913705,28.2906386 L44.6785982,28.2906386 L44.6785982,27.9010641 L39.2913705,27.9010641 L39.2913705,28.2906386 Z M39.2916134,27.0286504 L44.6788412,27.0286504 L44.6788412,26.6475765 L39.2916134,26.6475765 L39.2916134,27.0286504 Z M39.630471,31.9070753 L39.2153401,31.9070753 L39.2153401,29.1798109 L44.7463698,29.1798109 L44.7463698,31.8985746 L44.3314818,31.8985746 L44.3314818,31.3309714 L39.630471,31.3309714 L39.630471,31.9070753 Z M45.6781673,25.3433277 L45.6781673,25.7414029 L38.2835426,25.7414029 L38.2835426,25.3433277 L41.9342165,25.3433277 C41.7479056,24.8974058 41.5982738,24.5585925 41.4853213,24.3271309 L41.9174558,24.2423668 C42.1261143,24.699704 42.2871627,25.066691 42.4001152,25.3433277 L45.6781673,25.3433277 Z" id="Fill-23" fill="#000000"></path>
                <path d="M55.4782676,31.7799293 L55.1819191,30.9330176 L51.5395041,31.2803315 L51.4549719,30.8737556 C51.8557711,29.9534952 52.2342228,28.9229686 52.589841,27.7824188 C52.9457022,26.6421118 53.2534674,25.5042336 53.5131367,24.36927 L53.9535301,24.4625347 C53.7164513,25.5127343 53.4201027,26.6039801 53.0642416,27.7357864 C52.7086233,28.8680784 52.3413455,29.8998194 51.9631367,30.8314951 L55.0378742,30.5434431 C54.6368321,29.4650698 54.2923876,28.5588961 54.004298,27.8249222 L54.3771628,27.6893969 C54.6142416,28.2822594 54.8838702,28.9751871 55.1860485,29.768423 C55.4879839,30.5619017 55.7209333,31.1899813 55.8848967,31.6529047 L55.4782676,31.7799293 Z M51.5565077,29.2476949 C51.3194288,29.0104042 50.952151,28.6604187 50.4554028,28.1974953 L50.4554028,31.9154546 L50.0487738,31.9154546 L50.0487738,27.917944 C49.8680498,28.3582798 49.6506465,28.7944867 49.3965641,29.2263218 C49.1424817,29.6583997 48.8769825,30.0409308 48.6003096,30.373915 L48.4225005,29.9420799 C48.7273508,29.5580916 49.0181124,29.1150842 49.2950283,28.612329 C49.5714583,28.1100597 49.8058651,27.6017184 49.9980059,27.0880338 L48.5410399,27.0880338 L48.5410399,26.6729572 L50.0487738,26.6729572 L50.0487738,25.351707 C49.5576125,25.4420572 49.080297,25.5156489 48.6173132,25.5719963 L48.5665453,25.1654204 C49.1084744,25.0920716 49.6817388,25.0002641 50.2860955,24.8902409 C50.8902093,24.7802177 51.3898724,24.6714088 51.7850847,24.5640573 L51.8530991,24.9706331 C51.4858213,25.0668124 51.0199225,25.1712494 50.4554028,25.2839443 L50.4554028,26.6729572 L51.9461331,26.6729572 L51.9461331,27.0880338 L50.4554028,27.0880338 L50.4554028,27.6638948 C51.1498786,28.2963462 51.5958589,28.7085083 51.7935865,28.900381 L51.5565077,29.2476949 Z" id="Fill-24" fill="#000000"></path>
                <path d="M64.3805776,29.9336035 C63.9457711,29.6739682 63.5673195,29.3662432 63.2454655,29.0104285 L61.2720758,29.0104285 C60.9613956,29.3492418 60.5943607,29.6569668 60.1709709,29.9336035 L61.5769261,29.9336035 L61.6531994,29.3832445 L62.0343231,29.3915023 C62.0117326,29.5780318 61.9862272,29.7587322 61.9580498,29.9336035 L64.3805776,29.9336035 Z M60.0269261,27.7146804 L64.6093975,27.7146804 L64.6093975,27.0963159 L60.0269261,27.0963159 L60.0269261,27.7146804 Z M60.0269261,26.7830047 L64.6093975,26.7830047 L64.6093975,26.2156443 L60.0269261,26.2156443 L60.0269261,26.7830047 Z M61.2380686,25.6820438 L60.8314395,25.6820438 L60.8314395,25.2672101 L58.6884995,25.2672101 L58.6884995,24.9283969 L60.8314395,24.9283969 L60.8314395,24.2422697 L61.2380686,24.2422697 L61.2380686,24.9283969 L63.3725068,24.9283969 L63.3725068,24.2422697 L63.7876376,24.2422697 L63.7876376,24.9283969 L65.9305776,24.9283969 L65.9305776,25.2672101 L63.7876376,25.2672101 L63.7876376,25.6820438 L63.3725068,25.6820438 L63.3725068,25.2672101 L61.2380686,25.2672101 L61.2380686,25.6820438 Z M65.8545472,30.6027293 C65.3575561,30.4390303 64.8972443,30.2357424 64.4736116,29.9928655 C64.4342604,30.5575542 64.4031681,30.9104543 64.3805776,31.0515658 C64.3298097,31.3340316 64.2294884,31.5259043 64.0798567,31.6274269 C63.930225,31.7291923 63.6776,31.7799535 63.3217388,31.7799535 L62.3054091,31.7799535 L62.2461394,31.4411403 L63.2287048,31.4411403 C63.4769575,31.4411403 63.6506371,31.4100521 63.749501,31.3478756 C63.8483648,31.285942 63.9175937,31.1560029 63.9571878,30.9583011 C63.9851223,30.7268394 64.0050408,30.4982923 64.0164575,30.2724168 L61.8902783,30.2724168 C61.7717388,30.7071664 61.5132841,31.0544803 61.1151568,31.3141157 C60.7172725,31.5737511 60.1058714,31.8022982 59.2814395,32 L59.1543983,31.6359276 C59.8828813,31.4719857 60.4262679,31.2873992 60.785044,31.0811968 C61.1435771,30.8752372 61.3821134,30.6056439 61.5006528,30.2724168 L60.0354279,30.2724168 L60.0354279,30.0183676 C59.6795668,30.2498292 59.2700228,30.4727902 58.807039,30.6874934 L58.6377316,30.3316787 C59.5411088,29.9139305 60.2440864,29.4735947 60.7469073,29.0104285 L58.7140049,29.0104285 L58.7140049,28.6631146 L61.0772631,28.6631146 C61.2465704,28.476828 61.401789,28.2652823 61.5429189,28.0279916 L59.6032935,28.0279916 L59.6032935,25.8938324 L65.0242855,25.8938324 L65.0242855,28.0279916 L61.9835552,28.0279916 C61.8480122,28.2708684 61.7095542,28.4826571 61.5684243,28.6631146 L65.9053151,28.6631146 L65.9053151,29.0104285 L63.7538733,29.0104285 C64.273212,29.5073546 65.0157837,29.9081015 65.9815884,30.2131548 L65.8545472,30.6027293 Z" id="Fill-25" fill="#000000"></path>
            </g>
        </g>
    </g>
</svg>