<?xml version="1.0" encoding="UTF-8"?>
<svg width="32px" height="29px" viewBox="0 0 32 29" version="1.1" xmlns="http://www.w3.org/2000/svg" xmlns:xlink="http://www.w3.org/1999/xlink">
    <title>logo-图形</title>
    <g id="WEB" stroke="none" stroke-width="none" fill="none" fill-rule="evenodd">
        <g id="关于我们" transform="translate(-48, -14)" fill="CurrentColor" fill-rule="nonzero">
            <path d="M67.1383633,43 L60.7882975,33.8431989 C62.7422454,32.988628 64.2508625,31.755787 65.3125605,30.1457415 C65.3173262,30.1393482 65.3205034,30.1324221 65.3247396,30.1260288 L80,30.1260288 L80,43 L67.1383633,43 Z M48.0002648,35.1255879 L53.990783,35.1255879 L54.3302086,35.1255879 L59.7488396,43 L48.0002648,43 L48.0002648,35.1255879 Z M53.608201,19.1444206 C55.6749377,19.1444206 57.2476275,19.5935498 58.3241521,20.4907426 C59.4006768,21.389001 59.9381448,22.6783161 59.9381448,24.3597535 C59.9381448,26.012421 59.4006768,27.29481 58.3241521,28.2063878 C57.2476275,29.1184983 55.6749377,29.5745536 53.608201,29.5745536 L48,29.5745536 L48,19.1444206 Z M80,14 L80,28.2815623 L66.2529972,28.2815623 C66.6866783,27.1115888 66.9059017,25.8169459 66.9059017,24.3965682 C66.9059017,22.1743643 66.3816718,20.2505144 65.334271,18.6266167 C64.2863407,17.0016534 62.7920207,15.7475015 60.85237,14.8641608 C60.0506689,14.4997428 59.1864839,14.2141755 58.2661691,14 L80,14 Z" id="logo-图形"></path>
        </g>
    </g>
</svg>