<?xml version="1.0" encoding="UTF-8"?>
<svg width="48px" height="48px" viewBox="0 0 48 48" version="1.1" xmlns="http://www.w3.org/2000/svg" xmlns:xlink="http://www.w3.org/1999/xlink">
    <title>icon /风险控制</title>
    <g id="WEB" stroke="none" stroke-width="1" fill="none" fill-rule="evenodd">
        <g id="首页" transform="translate(-32, -2852)">
            <g id="icon-/风险控制" transform="translate(32, 2852)">
                <rect id="矩形" x="0" y="0" width="48" height="48"></rect>
                <g id="编组" transform="translate(4, 2)" fill="#FFFFFF">
                    <path d="M19.9888081,0 C21.1009498,0 24.7117319,0.579210289 28.4984645,1.24569884 L29.2329538,1.37565437 C29.4781001,1.41924809 29.7233551,1.46307299 29.968095,1.50699696 L30.7001456,1.63893402 C35.0756926,2.43075452 39.0822608,3.21187475 39.0822608,3.21187475 C39.5970901,3.32221772 39.9776161,3.78371965 40,4.31157651 L40,21.0322625 C40,27.1697167 35.7918299,34.9802088 30.5316172,38.3904026 C30.5316172,38.3904026 22.7420257,44 20.0783436,44 C17.4146614,44 9.49076665,38.3464145 9.49076665,38.3464145 C4.25293788,34.9362207 0,27.1704623 0,21.0322625 L0,4.31157651 C0,3.80608647 0.425293788,3.29985086 0.940123111,3.21187475 C0.940123111,3.21187475 5.76066343,2.26950177 10.595707,1.40565988 L11.3390261,1.27351839 C15.1734017,0.595411194 18.8612199,0 19.9888081,0 Z M20.8361382,11.9166667 L19.8950041,11.9166667 C19.7238888,11.9166667 19.5527736,12.0938003 19.5527736,12.270934 L19.5527736,14.1308374 C15.5315643,14.5736715 12.2803738,17.9392109 12.1092585,22.1904187 L19.5527736,22.1904187 L19.5527736,26.8844606 C19.5527736,27.7701288 18.8683124,28.5672303 17.9271783,28.5672303 C17.0716019,28.5672303 16.3015831,27.8586957 16.3015831,26.8844606 L16.3015831,26.4416264 L14.6759879,26.4416264 L14.6759879,27.681562 C14.6759879,29.0986313 15.7882372,30.25 17.1571595,30.25 L18.7827548,30.25 C20.1516771,30.25 21.2639265,29.0986313 21.2639265,27.681562 L21.2639265,22.1904187 L28.6218838,22.1904187 C28.4507685,17.9392109 25.2851357,14.5736715 21.1783688,14.1308374 L21.1783688,12.270934 C21.1783688,12.0938003 21.0072535,11.9166667 20.8361382,11.9166667 Z" id="形状结合" fill-opacity="0.4"></path>
                    <path d="M20.3268123,3.66666667 C22.509241,3.66666667 36.2380229,6.34322894 36.2380229,6.34322894 C36.6670473,6.43493288 36.9841524,6.82038769 37.0028056,7.26026839 L37.0028056,21.1933035 C37.0028056,26.3078487 33.4959972,32.8165921 29.1124866,35.6586688 C29.1124866,35.6586688 22.6211604,40.3333333 20.4014253,40.3333333 C18.1816902,40.3333333 11.5784445,35.6213908 11.5784445,35.6213908 C7.21358716,32.7800596 3.66947228,26.3085943 3.66947228,21.1933035 L3.66947228,7.26026839 C3.66947228,6.83828114 4.02388379,6.41629386 4.45290821,6.34322894 C4.45290821,6.34322894 7.87577707,5.67408837 11.5714495,5.0049478 L12.266816,4.87964731 C15.7519422,4.25477849 19.3037989,3.66666667 20.3268123,3.66666667 Z M20.8361382,11.9166667 L19.8950041,11.9166667 C19.7238888,11.9166667 19.5527736,12.0938003 19.5527736,12.270934 L19.5527736,14.1308374 C15.5315643,14.5736715 12.2803738,17.9392109 12.1092585,22.1904187 L19.5527736,22.1904187 L19.5527736,26.8844606 C19.5527736,27.7701288 18.8683124,28.5672303 17.9271783,28.5672303 C17.0716019,28.5672303 16.3015831,27.8586957 16.3015831,26.8844606 L16.3015831,26.4416264 L14.6759879,26.4416264 L14.6759879,27.681562 C14.6759879,29.0986313 15.7882372,30.25 17.1571595,30.25 L18.7827548,30.25 C20.1516771,30.25 21.2639265,29.0986313 21.2639265,27.681562 L21.2639265,22.1904187 L28.6218838,22.1904187 C28.4507685,17.9392109 25.2851357,14.5736715 21.1783688,14.1308374 L21.1783688,12.270934 C21.1783688,12.0938003 21.0072535,11.9166667 20.8361382,11.9166667 Z" id="形状结合"></path>
                </g>
            </g>
        </g>
    </g>
</svg>