<?xml version="1.0" encoding="UTF-8"?>
<svg width="240px" height="82px" viewBox="0 0 240 82" version="1.1" xmlns="http://www.w3.org/2000/svg" xmlns:xlink="http://www.w3.org/1999/xlink">
    <title>编组</title>
    <g id="WEB" stroke="none" stroke-width="1" fill="none" fill-rule="evenodd">
        <g id="关于我们" transform="translate(-320, -255)">
            <g id="编组" transform="translate(320, 255)">
                <path d="M55.6026502,39.5284014 L52.2869109,47.0030891 L60.5214407,47.0030891 L63.5968462,39.5284014 L55.6026502,39.5284014 Z M87.9025843,39.5284014 L79.7200854,39.5284014 L82.7948715,47.0030891 L91.2288537,47.0030891 L87.9025843,39.5284014 Z M66.9773146,31.4534982 L71.6836451,20.0373287 L76.3887368,31.4534982 L84.3092223,31.4534982 L75.7018034,12.1120437 L67.7645937,12.1120437 L59.1844291,31.4534982 L66.9773146,31.4534982 Z" id="形状结合" fill="#000000"></path>
                <path d="M96.784343,47.0030269 L99.3140421,47.0030269 L99.3140421,39.5283392 L96.784343,39.5283392 L96.784343,47.0030269 Z M117.816958,31.4534982 L117.816958,29.3081819 L99.3143518,29.3081819 L99.3143518,14.4048621 L119.999783,14.4048621 L119.999783,12.1120437 L96.7840333,12.1120437 L96.7840333,31.4534982 L117.816958,31.4534982 Z" id="形状结合" fill="#000000"></path>
                <path d="M14.9322861,35.7878835 C17.213599,34.7914659 18.975221,33.354409 20.2152939,31.4767127 C21.4553667,29.6002611 22.0747838,27.3647009 22.0747838,24.7725215 C22.0747838,22.1809645 21.4634192,19.9379359 20.2400706,18.0440579 C19.0161025,16.1495575 17.2718242,14.6876057 15.0066161,13.6569577 C12.7407887,12.6281768 10.0704819,12.1122304 6.99507641,12.1122304 L0,12.1122304 L0,18.6913247 L6.54785732,18.6913247 C8.96172545,18.6913247 10.7976775,19.2147396 12.0544746,20.2615693 C13.3112718,21.3090214 13.9393606,22.8120497 13.9393606,24.7725215 C13.9393606,26.7000076 13.3112718,28.1955675 12.0544746,29.2585789 C10.7976775,30.3222126 8.96172545,30.8530959 6.54785732,30.8530959 L0,30.8530959 L0,37.2834434 L6.99507641,37.2834434 L7.3915033,37.2834434 L14.0892595,47.0030269 L22.7202163,47.0030269 L14.9322861,35.7878835 Z" id="Fill-11" fill="#000000"></path>
                <path d="M35.1219981,47.0030269 L43.1583145,47.0030269 L43.1583145,26.7161893 L35.1219981,26.7161893 L35.1219981,47.0030269 Z M27.8097801,18.6414105 L51.9360731,18.6414105 L54.2706558,18.6414105 L54.2706558,12.1121059 L24.0096567,12.1121059 L24.0096567,18.6414105 L27.8097801,18.6414105 Z" id="形状结合" fill="#000000"></path>
                <path d="M137.685378,44.3829652 C135.895263,43.8713754 134.41052,42.9894743 133.246016,41.7198355 C131.294233,39.5938127 130.318651,36.3861074 130.318651,32.0998315 L130.318651,12.1123548 L127.788952,12.1123548 L127.788952,32.199411 C127.788952,37.1173945 129.004868,40.8553607 131.43546,43.4145544 C133.070102,45.1360353 135.160634,46.263151 137.685378,46.8263977 L137.685378,44.3829652 Z M153.088545,12.1122926 L153.088545,32.0997693 C153.088545,36.3860452 152.112963,39.5937505 150.162419,41.7197732 C148.99234,42.9937687 147.508217,43.8781593 145.721818,44.3885043 L145.721818,46.8169999 C148.229838,46.250019 150.311698,45.1253928 151.948198,43.4144922 C154.394895,40.8552985 155.618244,37.1179547 155.618244,32.1993488 L155.618244,12.1122926 L153.088545,12.1122926 Z" id="形状结合" fill="#000000"></path>
                <polygon id="Fill-17" fill="#000000" points="185.139845 32.109665 169.55779 12.1122304 167.424518 12.1122304 167.424518 47.0030269 169.955456 47.0030269 169.955456 16.6978672 185.139845 36.1445026"></polygon>
                <polygon id="Fill-18" fill="#C1272D" points="193.176347 0 193.176347 46.2409946 193.617992 47.0034003 195.701091 47.0034003 195.701091 0"></polygon>
                <polygon id="Fill-19" fill="#22B573" points="210.337482 48.216839 210.335623 48.216839 210.335623 10.8981693 210.337482 10.8981693 210.337482 8.07508994 207.804685 8.07508994 207.804685 51.0405407 210.337482 51.0405407"></polygon>
                <path d="M237.668514,20.5610547 C236.113158,17.9184632 233.939624,15.8503211 231.145434,14.3547611 C228.350624,12.8598236 225.150716,12.1123548 221.545709,12.1123548 L218.374294,12.1123548 L218.374294,14.4045509 L221.347495,14.4045509 C224.554837,14.4045509 227.383095,15.0455941 229.831031,16.3233238 C232.278347,17.603543 234.162614,19.3891282 235.486308,21.6819467 C236.808144,23.9753875 237.470301,26.6005525 237.470301,29.5580643 C237.470301,32.515576 236.808144,35.1394963 235.486308,37.4329371 C234.162614,39.7257556 232.278347,41.5125856 229.831031,42.79156 C227.383095,44.0705345 224.554837,44.7103329 221.347495,44.7103329 L218.374294,44.7103329 L218.374294,47.0031513 L221.545709,47.0031513 C225.150716,47.0031513 228.350624,46.2550602 231.145434,44.7601227 C233.939624,43.2645627 236.113158,41.1964206 237.668514,38.5550738 C239.222632,35.9124824 240,32.9145164 240,29.5580643 C240,26.2009897 239.222632,23.2024014 237.668514,20.5610547" id="Fill-20" fill="#000000"></path>
                <path d="M80.5593336,79.2437634 L87.752004,79.2437634 L87.752004,74.9469071 L80.5593336,74.9469071 L80.5593336,79.2437634 Z M87.2341714,62.3594335 L87.2341714,64.8557676 L90.4520428,64.8557676 L90.4520428,65.9187789 L87.2341714,65.9187789 L87.2341714,67.9153483 L86.1755877,67.9153483 L86.1755877,65.9187789 L81.6179173,65.9187789 L81.6179173,67.9371313 L80.559953,67.9371313 L80.559953,65.9187789 L77.4709203,65.9187789 L77.4709203,64.8557676 L80.559953,64.8557676 L80.559953,62.3594335 L81.6179173,62.3594335 L81.6179173,64.8557676 L86.1755877,64.8557676 L86.1755877,62.3594335 L87.2341714,62.3594335 Z M83.9940009,67.7417065 C83.7202186,68.5090912 83.4396227,69.1961899 83.1515938,69.8036249 L90.3876234,69.8036249 L90.3876234,70.8672587 L82.6331418,70.8672587 C82.0428373,71.9520531 81.3230748,72.9652747 80.4732346,73.9050564 L88.8322673,73.9050564 L88.8322673,81.6311824 L87.752004,81.6311824 L87.752004,80.2208874 L80.559953,80.2208874 L80.559953,81.6311824 L79.5013693,81.6311824 L79.5013693,74.9251241 C78.8819523,75.5331815 78.1690033,76.1406166 77.3631417,76.7480517 L76.7796509,75.815116 C77.8308016,75.0197246 78.7308145,74.2237109 79.4796897,73.4276971 C80.2285649,72.6323057 80.8764751,71.7784113 81.4234203,70.8672587 L76.9314081,70.8672587 L76.9314081,69.8036249 L81.9852315,69.8036249 C82.3166197,69.1669384 82.6331418,68.3858615 82.9354173,67.459772 L83.9940009,67.7417065 Z M75.5055101,66.8523369 L72.6543336,63.0322176 L73.4750611,62.3812165 C74.7132757,63.9439926 75.6783275,65.2024288 76.3695968,66.1577698 L75.5055101,66.8523369 Z M75.1598754,79.1572537 L77.1252856,77.3778921 L77.6003785,78.3108278 L74.2524295,81.2838988 L73.5184203,80.4592559 C73.76309,80.2134189 73.9216608,80.0179941 73.9935132,79.8736038 C74.0653655,79.7292135 74.1019111,79.5624178 74.1019111,79.3744615 L74.1019111,70.3245503 L71.747507,70.3245503 L71.747507,69.2391335 L75.1598754,69.2391335 L75.1598754,79.1572537 Z" id="Fill-22" fill="#000000"></path>
                <path d="M101.057701,79.3308955 L113.045279,79.3308955 L113.045279,75.77155 L101.057701,75.77155 L101.057701,79.3308955 Z M100.192995,72.4947614 L113.930426,72.4947614 L113.930426,71.4964768 L100.192995,71.4964768 L100.192995,72.4947614 Z M100.193614,69.2609166 L113.931045,69.2609166 L113.931045,68.2844149 L100.193614,68.2844149 L100.193614,69.2609166 Z M101.057701,81.7618805 L99.9991173,81.7618805 L99.9991173,74.7732653 L114.103243,74.7732653 L114.103243,81.7400975 L113.045279,81.7400975 L113.045279,80.2856141 L101.057701,80.2856141 L101.057701,81.7618805 Z M116.479327,64.9422773 L116.479327,65.962345 L97.6230336,65.962345 L97.6230336,64.9422773 L106.932252,64.9422773 C106.457159,63.7996023 106.075598,62.9313934 105.787569,62.3382728 L106.889512,62.121065 C107.421591,63.2929915 107.832265,64.2333956 108.120294,64.9422773 L116.479327,64.9422773 Z" id="Fill-23" fill="#000000"></path>
                <path d="M141.469582,81.4360687 L140.713894,79.2658576 L131.425735,80.1558495 L131.210178,79.1139988 C132.232216,76.7558313 133.197268,74.1151069 134.104095,71.192448 C135.011541,68.2704115 135.796342,65.3545987 136.458499,62.4462544 L137.581502,62.6852452 C136.976951,65.3763817 136.221262,68.1726991 135.313816,71.0729526 C134.40699,73.9744509 133.470431,76.6182871 132.505999,79.0057061 L140.346579,78.2675729 C139.323922,75.5042412 138.445588,73.1821713 137.71096,71.3013631 L138.661765,70.9540796 C139.266316,72.4732896 139.953869,74.2489169 140.724424,76.2815839 C141.494359,78.3148732 142.08838,79.9243272 142.506486,81.1105682 L141.469582,81.4360687 Z M131.469095,74.9472183 C130.864544,74.3391609 129.927985,73.4423228 128.661277,72.2560818 L128.661277,81.7833523 L127.624373,81.7833523 L127.624373,71.5397316 C127.163527,72.6680921 126.609149,73.7858722 125.961238,74.8924496 C125.313328,75.9996493 124.636305,76.9798852 123.930789,77.8331572 L123.477376,76.7265798 C124.254745,75.7426097 124.996187,74.6074032 125.702322,73.3190932 C126.407219,72.0320279 127.004956,70.7294033 127.494915,69.4130865 L123.779652,69.4130865 L123.779652,68.3494528 L127.624373,68.3494528 L127.624373,64.9637491 C126.371912,65.1952715 125.154757,65.3838502 123.974149,65.5282405 L123.84469,64.4863898 C125.22661,64.2984334 126.688434,64.0631768 128.229544,63.7812423 C129.770034,63.4993078 131.044174,63.2204851 132.051966,62.9453967 L132.225403,63.9872474 C131.288844,64.2337068 130.100802,64.5013267 128.661277,64.7901073 L128.661277,68.3494528 L132.462639,68.3494528 L132.462639,69.4130865 L128.661277,69.4130865 L128.661277,70.8887305 C130.43219,72.5093872 131.56944,73.5655525 132.073646,74.0572263 L131.469095,74.9472183 Z" id="Fill-24" fill="#000000"></path>
                <path d="M164.170473,76.7048591 C163.061716,76.0395434 162.096665,75.2509981 161.275937,74.3392231 L156.243793,74.3392231 C155.451559,75.207432 154.51562,75.9959774 153.435976,76.7048591 L157.021162,76.7048591 L157.215659,75.2945641 L158.187524,75.3157248 C158.129918,75.7937065 158.064879,76.2567512 157.993027,76.7048591 L164.170473,76.7048591 Z M153.068662,71.0188685 L164.753964,71.0188685 L164.753964,69.4343094 L153.068662,69.4343094 L153.068662,71.0188685 Z M153.068662,68.6314495 L164.753964,68.6314495 L164.753964,67.1775885 L153.068662,67.1775885 L153.068662,68.6314495 Z M156.157075,65.8102373 L155.120171,65.8102373 L155.120171,64.7472259 L149.655674,64.7472259 L149.655674,63.879017 L155.120171,63.879017 L155.120171,62.1208161 L156.157075,62.1208161 L156.157075,63.879017 L161.599892,63.879017 L161.599892,62.1208161 L162.658476,62.1208161 L162.658476,63.879017 L168.122973,63.879017 L168.122973,64.7472259 L162.658476,64.7472259 L162.658476,65.8102373 L161.599892,65.8102373 L161.599892,64.7472259 L156.157075,64.7472259 L156.157075,65.8102373 Z M167.929095,78.4194939 C166.661768,78.0000152 165.487973,77.4790898 164.40771,76.8567178 C164.307364,78.3037327 164.228079,79.2080392 164.170473,79.5696374 C164.041015,80.293456 163.785195,80.7851299 163.403635,81.0452814 C163.022074,81.3060552 162.37788,81.436131 161.470434,81.436131 L158.878793,81.436131 L158.727655,80.567922 L161.233197,80.567922 C161.866242,80.567922 162.309125,80.4882584 162.561227,80.3289312 C162.81333,80.1702263 162.989864,79.8372573 163.090829,79.3306465 C163.162062,78.737526 163.212854,78.1518739 163.241967,77.573068 L157.82021,77.573068 C157.517934,78.6871139 156.858874,79.5771058 155.84365,80.2424215 C154.829045,80.9077371 153.269972,81.4933892 151.167671,82 L150.843716,81.0670644 C152.701347,80.6469633 154.086983,80.1739606 155.001862,79.6455667 C155.916122,79.1177953 156.524389,78.4269624 156.826665,77.573068 L153.090341,77.573068 L153.090341,76.9220669 C152.182895,77.5151874 151.138558,78.0865249 149.957949,78.6367017 L149.526216,77.7249268 C151.829828,76.6544469 153.62242,75.5260865 154.904614,74.3392231 L149.720713,74.3392231 L149.720713,73.4492311 L155.747021,73.4492311 C156.178754,72.9718718 156.574562,72.4297858 156.934443,71.8217284 L151.988398,71.8217284 L151.988398,66.3529456 L165.811928,66.3529456 L165.811928,71.8217284 L158.058066,71.8217284 C157.712431,72.4441004 157.359363,72.9868087 156.999482,73.4492311 L168.058553,73.4492311 L168.058553,74.3392231 L162.572377,74.3392231 C163.896691,75.6125962 165.790248,76.63951 168.25305,77.4212092 L167.929095,78.4194939 Z" id="Fill-25" fill="#000000"></path>
            </g>
        </g>
    </g>
</svg>