<?xml version="1.0" encoding="UTF-8"?>
<svg width="946px" height="200px" viewBox="0 0 946 200" version="1.1" xmlns="http://www.w3.org/2000/svg" xmlns:xlink="http://www.w3.org/1999/xlink">
    <title>形状结合</title>
    <g id="WEB" stroke="none" stroke-width="1" fill="none" fill-rule="evenodd" opacity="0.5">
        <g id="关于我们" transform="translate(-654, -1315)" fill="#FFFFFF">
            <path d="M904.658846,1469.36666 L892.517539,1498.58974 L860.008667,1498.58974 L873.098782,1469.36666 L904.658846,1469.36666 Z M1000.61479,1469.36666 L1013.74648,1498.58974 L980.450196,1498.58974 L968.311333,1469.36666 L1000.61479,1469.36666 Z M823.524506,1419.27591 L823.524506,1498.58974 L791.951117,1498.58974 L791.951117,1419.27591 L823.524506,1419.27591 Z M952.447669,1362.17949 L986.428659,1437.79696 L955.159595,1437.79696 L936.584494,1393.16423 L918.004503,1437.79696 L887.239188,1437.79696 L921.11258,1362.17949 L952.447669,1362.17949 Z M867.183099,1362.17949 L867.183099,1387.70659 L748.292524,1387.70659 L748.292524,1362.17949 L867.183099,1362.17949 Z M1035.271,1498.58974 L1045.32221,1498.58974 L1045.32221,1469.3666 L1035.271,1469.3666 L1035.271,1498.58974 Z M1118.83948,1437.7971 L1118.83948,1429.40974 L1045.32344,1429.40974 L1045.32344,1371.14352 L1127.51246,1371.14352 L1127.51246,1362.17949 L1035.26977,1362.17949 L1035.26977,1437.7971 L1118.83948,1437.7971 Z M713.276963,1454.74263 C722.333132,1450.84701 729.326274,1445.22864 734.249014,1437.88753 C739.171753,1430.55129 741.630664,1421.81107 741.630664,1411.6766 C741.630664,1401.54456 739.203719,1392.77513 734.34737,1385.37076 C729.488563,1377.96396 722.56427,1372.24826 713.572033,1368.21881 C704.577337,1364.19665 693.976972,1362.17949 681.76848,1362.17949 L654,1362.17949 L654,1387.90134 L679.993146,1387.90134 C689.575522,1387.90134 696.863734,1389.9477 701.852864,1394.04042 C706.841994,1398.13558 709.335329,1404.01187 709.335329,1411.6766 C709.335329,1419.21236 706.841994,1425.05945 701.852864,1429.21544 C696.863734,1433.37386 689.575522,1435.44942 679.993146,1435.44942 L654,1435.44942 L654,1460.58973 L681.76848,1460.58973 L683.342183,1460.58973 L709.930386,1498.58974 L744.192849,1498.58974 L713.276963,1454.74263 Z M1197.25866,1488.03474 C1190.20439,1486.03955 1184.3535,1482.60015 1179.76456,1477.64857 C1172.07321,1469.3571 1168.22875,1456.84709 1168.22875,1440.13066 L1168.22875,1362.17973 L1158.26002,1362.17973 L1158.26002,1440.51902 C1158.26002,1459.6991 1163.05155,1474.27713 1172.62974,1484.25795 C1179.07134,1490.97171 1187.30945,1495.36745 1197.25866,1497.5641 L1197.25866,1488.03474 Z M1257.9576,1362.17949 L1257.9576,1440.13042 C1257.9576,1456.84685 1254.11314,1469.35686 1246.42667,1477.64833 C1241.81577,1482.61689 1235.96731,1486.06601 1228.92769,1488.05635 L1228.92769,1497.52745 C1238.81099,1495.31623 1247.01493,1490.9302 1253.46385,1484.25771 C1263.1055,1474.27688 1267.92633,1459.70129 1267.92633,1440.51878 L1267.92633,1362.17949 L1257.9576,1362.17949 Z M1383.74215,1440.36214 L1322.44025,1362.17949 L1314.04767,1362.17949 L1314.04767,1498.58974 L1324.00472,1498.58974 L1324.00472,1380.10765 L1383.74215,1456.13688 L1383.74215,1440.36214 Z M1415.51463,1315 L1415.51463,1496.62088 L1417.30748,1499.61538 L1425.76381,1499.61538 L1425.76381,1315 L1415.51463,1315 Z M1483.15926,1503.87811 L1483.15099,1503.87811 L1483.15099,1356.88867 L1483.15926,1356.88867 L1483.15926,1345.76923 L1471.88516,1345.76923 L1471.88516,1515 L1483.15926,1515 L1483.15926,1503.87811 Z M1590.93922,1395.21081 C1584.89468,1384.87925 1576.44774,1376.79357 1565.58876,1370.94648 C1554.72738,1365.10182 1542.29167,1362.17949 1528.28164,1362.17949 L1515.95666,1362.17949 L1515.95666,1371.14114 L1527.51133,1371.14114 C1539.97592,1371.14114 1550.9673,1373.64738 1560.48064,1378.64284 C1569.99157,1383.64802 1577.31434,1390.62901 1582.45857,1399.59309 C1587.59559,1408.55961 1590.16891,1418.82304 1590.16891,1430.38583 C1590.16891,1441.94862 1587.59559,1452.20719 1582.45857,1461.17371 C1577.31434,1470.13779 1569.99157,1477.12364 1560.48064,1482.12396 C1550.9673,1487.12428 1539.97592,1489.62566 1527.51133,1489.62566 L1515.95666,1489.62566 L1515.95666,1498.58974 L1528.28164,1498.58974 C1542.29167,1498.58974 1554.72738,1495.66498 1565.58876,1489.82032 C1576.44774,1483.97323 1584.89468,1475.88755 1590.93922,1465.56085 C1596.97894,1455.22928 1600,1443.50833 1600,1430.38583 C1600,1417.2609 1596.97894,1405.53751 1590.93922,1395.21081" id="形状结合"></path>
        </g>
    </g>
</svg>